<svg id="Í_ã_1" data-name="Í¼²ã_1" xmlns="http://www.w3.org/2000/svg" viewBox="0 0 579.91 129.91"><defs><style>.cls-1,.cls-2{fill:none;}.cls-1{stroke:#231f20;stroke-width:0.22px;}.cls-1,.cls-5{stroke-miterlimit:22.93;}.cls-2{stroke:#b2b8bf;stroke-linecap:round;stroke-linejoin:round;stroke-width:5.96px;}.cls-2,.cls-3,.cls-4,.cls-5,.cls-6{fill-rule:evenodd;}.cls-3{fill:#b2b8bf;}.cls-4{fill:#231f20;}.cls-5{fill:#fff;stroke:#fff;stroke-width:5.68px;}.cls-6{fill:#eb2d2e;}</style></defs><rect class="cls-1" x="-9.26" y="-512.35" width="595.27" height="841.89"/><path class="cls-2" d="M213.22,43.44l-22.47-.1L187.11,60l-2.18,10.28v0h0L180,93l-9.83,0,13-60.1,36.71.17c3.41,0,5.68.94,6.82,2.79s1.25,4.83.37,8.9L224,58.88q-1.32,6.07-4.2,8.83c-2,1.86-4.61,2.78-8,2.76l-5.61,0,14.91,22.77-14.33-.06L195,71.55l3-11.43,11.6.05a5.59,5.59,0,0,0,3.77-1,6.8,6.8,0,0,0,1.76-3.72l1.57-7.24c.38-1.75.32-3-.16-3.67s-1.59-1.06-3.33-1.07Zm318.67,1.74L500.7,45l-8.22,38,31.19.14,2.89-13.37-16.33-.07,1.56-6.35,26,.12L534,80.35c-1.25,5.49-2.74,9.25-4.62,11.22s-4.93,3-9.09,3l-29.6-.14c-4.18,0-6.78-1-7.81-3s-1-5.74.23-11.25L490,48.46c1.18-5.47,2.72-9.19,4.61-11.2s4.94-3,9.11-3l29.61.14c4.1,0,6.71,1,7.76,3S542,43,541,48.14l-.76,4-9.76-.28,1.45-6.72ZM421.47,94.08l13-60.09,6.82,0,22.58,35.55c.77,1.19,1.43,2.3,2,3.35a27.1,27.1,0,0,1,1.46,3.21c.58-3.38,1-5.76,1.23-7.16s.45-2.48.62-3.24L476,34.18l9,0L472,94.31l-6.82,0L441.64,57c-.56-1-1-1.81-1.44-2.57a20.6,20.6,0,0,1-1.08-2.34c-.27,1.84-.54,3.61-.83,5.26s-.57,3.07-.83,4.29l-7,32.46-9,0ZM403.31,94l13-60.09,10,0-13,60.09-10,0Zm-60.5-.25,13-60.09,10.08,0-5.42,25.07,29.22-25,14.46.07L369.59,62.07,394.64,94l-16-.07-20-26.55-5.71,26.43-10.08,0Zm-58.66-.26,13-60.09,6.82,0L326.54,69c.77,1.19,1.43,2.3,2,3.35A28,28,0,0,1,330,75.56c.58-3.38,1-5.77,1.23-7.17s.45-2.48.62-3.24l6.82-31.55,9,0-13,60.1-6.82,0L304.32,56.44c-.56-.95-1-1.81-1.44-2.57a20.6,20.6,0,0,1-1.08-2.34c-.27,1.85-.54,3.62-.83,5.26s-.57,3.07-.83,4.29l-7,32.47-9,0ZM241,80.23h0l0,0h0l-2.17,3.62-.31.52h0l-5.35,9-10,0,37.28-60,9.62,0L281.78,93.5l-11.21,0-1-5.5-2.37-13.8-4.75-29.22Z"/><path class="cls-3" d="M483.55,92.31V78.08L490,48.46c1.18-5.47,2.72-9.19,4.61-11.2s4.94-3,9.11-3l29.61.14c4.1,0,6.71,1,7.76,3S542,43,541,48.14l-.76,4-9.76-.28,1.45-6.72L500.7,45l-8.22,38,31.19.14,2.89-13.37-16.33-.07,1.56-6.35,26,.12L534,80.35c-1.25,5.49-2.74,9.25-4.62,11.22s-4.93,3-9.09,3l-29.6-.14q-5.18,0-7.14-2.07Zm0-51.65,1.4-6.44h-1.4Zm0-6.45v6.45L472,94.31l-6.82,0L441.64,57c-.56-1-1-1.81-1.44-2.57a20.6,20.6,0,0,1-1.08-2.34c-.27,1.84-.54,3.61-.83,5.26s-.57,3.07-.83,4.29l-7,32.46-6.56,0V82.92L434.46,34l6.82,0,22.58,35.55c.77,1.19,1.43,2.3,2,3.35a27.1,27.1,0,0,1,1.46,3.21c.58-3.38,1-5.76,1.23-7.16s.45-2.48.62-3.24L476,34.18l7.57,0Zm0,43.87-.44,2q-1.78,8.27-.23,11.25a4.42,4.42,0,0,0,.67,1V78.08Zm-59.67-33L426.3,34l-2.42,0Zm0-11.17V45.12L413.3,94.06l-9.58,0V92.09L416.3,33.92l7.58,0Zm0,49-2.41,11.16h2.41V82.92ZM403.72,34.23l.42-.34h-.42Zm0-.34v.34L369.59,62.07,394.64,94l-16-.07-20-26.55-5.71,26.43-7.67,0V82.62L355.8,33.67l10.08,0-5.42,25.07,29.22-25,14,.07Zm0,58.2L403.31,94h.41V92.09Zm-58.5-47.31,2.41-11.14h-2.41ZM225.45,34.49a4.65,4.65,0,0,1,1.26,1.36c1.13,1.85,1.25,4.83.37,8.9l-1.63,7.52V34.49Zm119.77-.86V44.78l-10.59,49-6.82,0L304.32,56.44c-.56-.95-1-1.81-1.44-2.57a20.6,20.6,0,0,1-1.08-2.34c-.27,1.85-.54,3.62-.83,5.26s-.57,3.07-.83,4.29l-7,32.47-9,0,13-60.09,6.82,0L326.54,69c.77,1.19,1.43,2.3,2,3.35A28,28,0,0,1,330,75.56c.58-3.38,1-5.77,1.23-7.17s.45-2.48.62-3.24l6.82-31.55,6.56,0Zm0,49-2.41,11.14h2.41V82.62ZM225.45,93.24l7.76,0,5.35-9h0l.31-.52L241,80.18h0l0,0h0l21.48-35.3,4.75,29.22L269.6,88l1,5.5,11.21,0L270.16,33.29l-9.62,0L225.45,89.7Zm-12.23-49.8-22.47-.1L187.11,60l-2.18,10.28v0h0L180,93l-9.83,0,13-60.1,36.71.17a9.32,9.32,0,0,1,5.56,1.43V52.27L224,58.88q-1.32,6.07-4.2,8.83c-2,1.86-4.61,2.78-8,2.76l-5.61,0,14.91,22.77-14.33-.06L195,71.55l3-11.43,11.6.05a5.59,5.59,0,0,0,3.77-1,6.8,6.8,0,0,0,1.76-3.72l1.57-7.24c.38-1.75.32-3-.16-3.67s-1.59-1.06-3.33-1.07ZM225.45,89.7l-2.19,3.53h2.19Z"/><path class="cls-4" d="M483.55,92.31V78.08L490,48.46c1.18-5.47,2.72-9.19,4.61-11.2s4.94-3,9.11-3l29.61.14c4.1,0,6.71,1,7.76,3S542,43,541,48.14l-.76,4-9.76-.28,1.45-6.72L500.7,45l-8.22,38,31.19.14,2.89-13.37-16.33-.07,1.56-6.35,26,.12L534,80.35c-1.25,5.49-2.74,9.25-4.62,11.22s-4.93,3-9.09,3l-29.6-.14q-5.18,0-7.14-2.07Zm0-51.65,1.4-6.44h-1.4Zm0-6.45v6.45L472,94.31l-6.82,0L441.64,57c-.56-1-1-1.81-1.44-2.57a20.6,20.6,0,0,1-1.08-2.34c-.27,1.84-.54,3.61-.83,5.26s-.57,3.07-.83,4.29l-7,32.46-6.56,0V82.92L434.46,34l6.82,0,22.58,35.55c.77,1.19,1.43,2.3,2,3.35a27.1,27.1,0,0,1,1.46,3.21c.58-3.38,1-5.76,1.23-7.16s.45-2.48.62-3.24L476,34.18l7.57,0Zm0,43.87-.44,2q-1.78,8.27-.23,11.25a4.42,4.42,0,0,0,.67,1V78.08Zm-59.67-33L426.3,34l-2.42,0Zm0-11.17V45.12L413.3,94.06l-9.58,0V92.09L416.3,33.92l7.58,0Zm0,49-2.41,11.16h2.41V82.92ZM403.72,34.23l.42-.34h-.42Zm0-.34v.34L369.59,62.07,394.64,94l-16-.07-20-26.55-5.71,26.43-7.67,0V82.62L355.8,33.67l10.08,0-5.42,25.07,29.22-25,14,.07Zm0,58.2L403.31,94h.41V92.09Zm-58.5-47.31,2.41-11.14h-2.41ZM225.45,34.49a4.65,4.65,0,0,1,1.26,1.36c1.13,1.85,1.25,4.83.37,8.9l-1.63,7.52V34.49Zm119.77-.86V44.78l-10.59,49-6.82,0L304.32,56.44c-.56-.95-1-1.81-1.44-2.57a20.6,20.6,0,0,1-1.08-2.34c-.27,1.85-.54,3.62-.83,5.26s-.57,3.07-.83,4.29l-7,32.47-9,0,13-60.09,6.82,0L326.54,69c.77,1.19,1.43,2.3,2,3.35A28,28,0,0,1,330,75.56c.58-3.38,1-5.77,1.23-7.17s.45-2.48.62-3.24l6.82-31.55,6.56,0Zm0,49-2.41,11.14h2.41V82.62ZM225.45,93.24l7.76,0,5.35-9h0l.31-.52L241,80.18h0l0,0h0l21.48-35.3,4.75,29.22L269.6,88l1,5.5,11.21,0L270.16,33.29l-9.62,0L225.45,89.7Zm-12.23-49.8-22.47-.1L187.11,60l-2.18,10.28v0h0L180,93l-9.83,0,13-60.1,36.71.17a9.32,9.32,0,0,1,5.56,1.43V52.27L224,58.88q-1.32,6.07-4.2,8.83c-2,1.86-4.61,2.78-8,2.76l-5.61,0,14.91,22.77-14.33-.06L195,71.55l3-11.43,11.6.05a5.59,5.59,0,0,0,3.77-1,6.8,6.8,0,0,0,1.76-3.72l1.57-7.24c.38-1.75.32-3-.16-3.67s-1.59-1.06-3.33-1.07ZM225.45,89.7l-2.19,3.53h2.19Z"/><path class="cls-5" d="M48,96.27q7.14-13.45,15.39-29C69.33,56.09,75.8,44,82.83,30.74c.11-.21,54.46,20.43,60,23.52,9.75,5.42,11.79,19,2.28,25.21-7.82,5.11-22.18,1.91-20.83,3.85l9.18,13.21-20.72-.12L98.45,79.87C97.7,79,106.94,67,106.94,67c6.84,1.42,21.35,5.4,26.2,4.17,2.9-.74,3.46-4.37-3.57-7.08-13-5-36.48-9.47-36.48-9.47C88.49,62.51,84.14,70,80,77.11q-5.9,10.13-11.22,19.31Z"/><path class="cls-5" d="M56.27,52.19c8,0,14.52-5.55,14.52-12.35S64.26,27.5,56.27,27.5,41.75,33,41.75,39.84,48.27,52.19,56.27,52.19Z"/><path class="cls-6" d="M48,96.27q7.14-13.45,15.39-29C69.33,56.09,75.8,44,82.83,30.74c.11-.21,54.46,20.43,60,23.52,9.75,5.42,11.79,19,2.28,25.21-7.82,5.11-22.18,1.91-20.83,3.85l9.18,13.21-20.72-.12L98.45,79.87C97.7,79,106.94,67,106.94,67c6.84,1.42,21.35,5.4,26.2,4.17,2.9-.74,3.46-4.37-3.57-7.08-13-5-36.48-9.47-36.48-9.47C88.49,62.51,84.14,70,80,77.11q-5.9,10.13-11.22,19.31Z"/><path class="cls-6" d="M56.27,52.19c8,0,14.52-5.55,14.52-12.35S64.26,27.5,56.27,27.5,41.75,33,41.75,39.84,48.27,52.19,56.27,52.19Z"/></svg>