<svg id="Layer_1" data-name="Layer 1" xmlns="http://www.w3.org/2000/svg" viewBox="0 0 664.27 73.75"><defs><style>.cls-1{fill:#ef3e2d;}.cls-1,.cls-2{fill-rule:evenodd;}.cls-2{fill:#283a97;}</style></defs><path class="cls-1" d="M609.71,9.13h68.92l-3.44,19.43H653l-9.61,54.31H618.48l9.82-54.31h-22ZM531.18,82.87h24.75l4.6-26h26.94l3.13-17.18H563.66l2.4-13.4H599.9L603,9.13H544.44Zm-40.2,0h24.64L528.88,9.13H504.24Zm-70,0H479.6l3-17.18H448.79L458.92,9.13H434.27Z" transform="translate(-14.36 -9.13)"/><path class="cls-2" d="M369.21,57.71h15.56l-3-26.39L369.21,57.71Zm4.08-48.58h25.16l13.68,73.74H387.59l-1.25-9.82H361.69l-4.49,9.82h-24l40.1-73.74Zm-90.44,0H253.09L239.83,82.87h21.92Q266.67,57.1,267.92,46l.83-10.43H269l5.33,47.35h17.12l22.25-47.35h.21l-3.76,13.39q-1,5.33-1.88,9.42t-4.6,24.54h22.24L339.14,9.13H309.37l-21.61,46-4.91-46ZM172,9.13h36.44q16.4,0,22.66,4.14A13.23,13.23,0,0,1,237.32,25a26.3,26.3,0,0,1-4.23,14.68A19.44,19.44,0,0,1,221,48.1q5.75,2.35,7.88,4.45c1.43,1.39,2.14,4,2.14,7.92a52.89,52.89,0,0,1-.62,7.27l-1.05,5.72c-.21,1.16-.48,2.83-.83,5,.21,1.5.9,2.25,2.09,2.25l-.42,2.14H205.36a50.43,50.43,0,0,1,.53-10.12q.83-6.56.83-8.29,0-5.11-3-6.13-3.34-1.23-12-1.23H188l-4.7,25.77H158.68L172,9.13Zm21.61,17.18-2.71,14.63h10.44q11.39,0,12.22-7.16a5.51,5.51,0,0,0-.63-4,6.36,6.36,0,0,0-3.13-2.61,11.27,11.27,0,0,0-4.39-.87ZM98,9.13,84.75,82.87h62.86l3-17.18H112.53l2-11.56h31L148.76,37H117.64l2-10.64h36.55l3.24-17.18Zm-80.2,0H86.73L83.29,28.56H61l-9.6,54.31H26.58L36.4,28.56h-22Z" transform="translate(-14.36 -9.13)"/></svg>