<svg id="圖層_1" data-name="圖層 1" xmlns="http://www.w3.org/2000/svg" viewBox="0 0 180.5 79.51"><defs><style>.cls-1{fill:#231916;}.cls-2{fill:#e60013;}.cls-3{fill:#fff;}.cls-4{fill:#a19600;}.cls-5{fill:#fff67f;}.cls-6{fill:#fff100;}</style></defs><rect class="cls-1" x="4.29" y="4.6" width="172.7" height="71.05"/><polygon class="cls-2" points="11.71 16.07 27.71 16.07 35.51 29.36 43.52 16.72 58.93 16.72 43.13 42.01 43.13 59.58 28.29 59.58 28.29 41.58 11.71 16.07"/><path class="cls-2" d="M164.94,69.09V61.45h3.35a4.41,4.41,0,0,1,1.54.2,1.72,1.72,0,0,1,.84.72,2.34,2.34,0,0,1,.31,1.16,2,2,0,0,1-.52,1.38,2.65,2.65,0,0,1-1.61.7,2.83,2.83,0,0,1,.61.38,4.81,4.81,0,0,1,.82,1l1.32,2.08h-1.26l-1-1.59a10.57,10.57,0,0,0-.72-1,2.2,2.2,0,0,0-.51-.51,1.52,1.52,0,0,0-.45-.21,3.4,3.4,0,0,0-.56,0h-1.16v3.4Zm1-4.27h2.15a2.83,2.83,0,0,0,1.07-.15,1.1,1.1,0,0,0,.59-.46,1.16,1.16,0,0,0,.2-.68,1.12,1.12,0,0,0-.39-.89,1.81,1.81,0,0,0-1.23-.36h-2.39Z" transform="translate(0.19)"/><path class="cls-2" d="M162.16,64.72a5.76,5.76,0,0,1,5.47-6h0a5.75,5.75,0,0,1,5.46,6h0a5.74,5.74,0,0,1-5.46,6h0a5.75,5.75,0,0,1-5.47-6Zm1.18,0a4.52,4.52,0,0,0,4.29,4.72h0a4.52,4.52,0,0,0,4.29-4.72h0A4.52,4.52,0,0,0,167.63,60h0a4.52,4.52,0,0,0-4.29,4.71Z" transform="translate(0.19)"/><path class="cls-2" d="M11.35,15.75H29.69l5.95,14.47,5.85-14.47H60.08L43.64,40.49V61.41H27.34V40.49Z" transform="translate(0.19)"/><path class="cls-3" d="M25.58,63.34V41.11L9.91,16.87l1.44-1.12L9.91,16.87,8,13.82H30.82l4.8,11.68,4.72-11.68H63.53L45.39,41.12V63.34Zm3.51-23.46v19.6H41.88V39.86L56.62,17.68h-14l-7,17.26-7.1-17.26H14.75l14.34,22.2Z" transform="translate(0.19)"/><path class="cls-2" d="M115.17,15.75h15.21l7.31,14.47a111.28,111.28,0,0,1,5,11.16h.78l-.37-7.72V15.75h14.35V61.41H142.3L135,47a110.39,110.39,0,0,1-5-11.2h-.82l.36,7.72V61.41H115.17Z" transform="translate(0.19)"/><path class="cls-3" d="M141.26,63.34l-7.81-15.46q-1.19-2.34-2.18-4.48h0V63.34H113.41V13.82h18l7.81,15.47c.77,1.52,1.49,3,2.14,4.37h0V13.82h17.85V63.34Zm-10.1-29.52L131.6,35a103.51,103.51,0,0,0,4.92,11h0l6.81,13.47h12.38V17.68H144.88V33.61l.46,9.69h-3.81l-.45-1.19a107.39,107.39,0,0,0-4.92-10.95h0l-6.81-13.48H116.92v41.8h10.82v-16l-.45-9.68Z" transform="translate(0.19)"/><path class="cls-2" d="M66.56,15.75H88.67q7,0,11.35,2.93a9,9,0,0,1,4.35,7.74,8.58,8.58,0,0,1-2.61,6.26,18.52,18.52,0,0,1-7.87,4.21c4.91.53,8.57,1.74,11,3.64a9.3,9.3,0,0,1,3.67,7.75q0,6-6,9.58T86.54,61.41h-20Zm14.49,8.87v8.67h1.61a9.39,9.39,0,0,0,5.15-1.23,3.91,3.91,0,0,0,1.89-3.44,3.38,3.38,0,0,0-1.47-3,8.07,8.07,0,0,0-4.46-1Zm0,17.15V52.44h4.68A10.39,10.39,0,0,0,91.51,51a4.39,4.39,0,0,0,0-7.72,10.66,10.66,0,0,0-5.76-1.46Z" transform="translate(0.19)"/><path class="cls-3" d="M64.8,63.34V13.82H88.67c4.89,0,9,1,12.27,3.22h0a11,11,0,0,1,5.19,9.38h0A10.6,10.6,0,0,1,103,34.1h0a15.12,15.12,0,0,1-2.66,2.08h0A17.32,17.32,0,0,1,105.92,39h0a11.36,11.36,0,0,1,4.4,9.33h0c0,4.78-2.54,8.76-6.87,11.27h0c-4.34,2.59-10,3.79-16.91,3.79H64.8Zm3.51-3.86H86.54c6.56,0,11.64-1.16,15.23-3.31h0c3.61-2.22,5-4.62,5-7.89h0a7.27,7.27,0,0,0-2.91-6.18h0c-2-1.6-5.44-2.79-10.17-3.28h0L93.42,35a17.15,17.15,0,0,0,7.16-3.79h0a6.5,6.5,0,0,0,2-4.83h0c0-2.53-1-4.33-3.5-6.09h0c-2.54-1.72-6-2.65-10.44-2.65H68.31v41.8Zm11-5.1V39.84h6.44a12.26,12.26,0,0,1,6.63,1.72h0a6.39,6.39,0,0,1,3.2,5.55h0a6.47,6.47,0,0,1-3.16,5.51h0a12.07,12.07,0,0,1-6.67,1.76H79.29Zm3.52-3.87h2.92a8.8,8.8,0,0,0,4.88-1.23h0c1.19-.83,1.4-1.35,1.43-2.18h0c0-.9-.25-1.4-1.43-2.21h0a9,9,0,0,0-4.88-1.2H82.81v6.81ZM81.05,43.7v0Zm-1.76-8.48V22.69h4.48A9.49,9.49,0,0,1,89.15,24h0a5.44,5.44,0,0,1,2.31,4.64h0a5.93,5.93,0,0,1-2.75,5.09h0a10.85,10.85,0,0,1-6,1.51H79.29Zm3.52-3.85a7.63,7.63,0,0,0,4.1-1h0a1.92,1.92,0,0,0,1-1.78h0c-.06-.82-.15-1-.64-1.36h0a6.62,6.62,0,0,0-3.54-.71h-1v4.82Zm-1.76-4.82v0Z" transform="translate(0.19)"/><path class="cls-2" d="M11.35,15.75H29.69l5.95,14.47,5.85-14.47H60.08L43.64,40.49V61.41H27.34V40.49Z" transform="translate(0.19)"/><path class="cls-2" d="M115.17,15.75h15.21l7.31,14.47a111.28,111.28,0,0,1,5,11.16h.78l-.37-7.72V15.75h14.35V61.41H142.3L135,47a110.39,110.39,0,0,1-5-11.2h-.82l.36,7.72V61.41H115.17Z" transform="translate(0.19)"/><path class="cls-2" d="M66.56,15.75H88.67q7,0,11.35,2.93a9,9,0,0,1,4.35,7.74,8.58,8.58,0,0,1-2.61,6.26,18.52,18.52,0,0,1-7.87,4.21c4.91.53,8.57,1.74,11,3.64a9.3,9.3,0,0,1,3.67,7.75q0,6-6,9.58T86.54,61.41h-20Zm14.49,8.87v8.67h1.61a9.39,9.39,0,0,0,5.15-1.23,3.91,3.91,0,0,0,1.89-3.44,3.38,3.38,0,0,0-1.47-3,8.07,8.07,0,0,0-4.46-1Zm0,17.15V52.44h4.68A10.39,10.39,0,0,0,91.51,51a4.39,4.39,0,0,0,0-7.72,10.66,10.66,0,0,0-5.76-1.46Z" transform="translate(0.19)"/><polygon class="cls-4" points="4.29 75.65 0 79.51 180.5 79.51 176.99 75.65 4.29 75.65"/><polygon class="cls-5" points="180.12 0 0.19 0 4.29 4.6 176.99 4.6 180.12 0"/><polygon class="cls-6" points="180.12 0 180.12 79.51 176.99 75.65 176.99 4.6 180.12 0"/><polygon class="cls-6" points="0.19 0 0.19 79.51 4.29 75.65 4.29 4.6 0.19 0"/></svg>